<svg xmlns="http://www.w3.org/2000/svg" version="1.1" xmlns:xlink="http://www.w3.org/1999/xlink" xmlns:svgjs="http://svgjs.dev/svgjs" width="180" height="180"><svg width="180" height="180" viewBox="0 0 180 180" fill="none" xmlns="http://www.w3.org/2000/svg">
<g clip-path="url(#clip0_1_2)">
<circle cx="90" cy="90" r="90" fill="#FDE8F1"></circle>
<path d="M130.908 124.091C130.777 124.495 130.502 124.831 130.142 125.028C129.781 125.226 129.361 125.271 128.969 125.154C128.908 125.132 128.841 125.136 128.782 125.165C128.724 125.194 128.678 125.246 128.655 125.309C128.637 125.344 128.626 125.383 128.624 125.422C128.622 125.462 128.628 125.502 128.642 125.539C128.656 125.575 128.678 125.609 128.706 125.636C128.734 125.663 128.767 125.683 128.803 125.696H128.941C129.449 125.806 129.978 125.72 130.429 125.453C130.881 125.187 131.225 124.758 131.397 124.246C131.988 122.71 131.24 121.589 129.902 121.019L126.356 119.521C126.32 119.505 126.282 119.498 126.243 119.498C126.205 119.498 126.167 119.507 126.131 119.523C126.096 119.539 126.064 119.563 126.038 119.593C126.011 119.622 125.991 119.657 125.978 119.695C125.961 119.731 125.952 119.771 125.951 119.811C125.95 119.852 125.958 119.892 125.972 119.929C125.987 119.966 126.009 120 126.037 120.028C126.065 120.056 126.098 120.077 126.134 120.091L129.717 121.627C130.871 122.12 131.36 122.971 130.927 124.091H130.908ZM130.188 118.506L130.936 116.574C130.948 116.509 130.938 116.443 130.908 116.386C130.878 116.328 130.83 116.284 130.772 116.26C130.713 116.235 130.649 116.233 130.59 116.254C130.53 116.274 130.48 116.315 130.446 116.371L129.717 118.294L127.547 117.385L128.794 114.042C128.807 114.008 128.814 113.972 128.814 113.936C128.813 113.9 128.806 113.864 128.792 113.83C128.779 113.797 128.759 113.767 128.733 113.742C128.708 113.717 128.678 113.697 128.646 113.684C128.581 113.661 128.51 113.664 128.447 113.693C128.383 113.721 128.333 113.773 128.304 113.839L126.947 117.463C126.932 117.499 126.924 117.539 126.924 117.579C126.924 117.619 126.931 117.658 126.946 117.695C126.96 117.732 126.982 117.766 127.009 117.794C127.036 117.822 127.068 117.844 127.104 117.859L132.561 120.159C132.597 120.174 132.635 120.182 132.673 120.181C132.712 120.181 132.75 120.172 132.786 120.156C132.821 120.14 132.853 120.116 132.879 120.087C132.906 120.057 132.926 120.023 132.939 119.985L134.334 116.361C134.346 116.297 134.336 116.23 134.306 116.173C134.276 116.116 134.227 116.071 134.169 116.047C134.111 116.023 134.047 116.021 133.988 116.041C133.928 116.061 133.878 116.103 133.844 116.158L132.552 119.501L130.188 118.535V118.506ZM130.53 108.514C130.471 108.507 130.411 108.519 130.36 108.551C130.309 108.582 130.27 108.63 130.248 108.688C130.225 108.745 130.222 108.808 130.238 108.868C130.254 108.928 130.288 108.98 130.336 109.017L134.62 112.882L128.988 112.505C128.929 112.494 128.869 112.504 128.817 112.534C128.764 112.564 128.724 112.612 128.701 112.67C128.686 112.703 128.678 112.739 128.677 112.776C128.675 112.813 128.682 112.85 128.695 112.885C128.708 112.919 128.727 112.95 128.752 112.977C128.777 113.003 128.807 113.023 128.84 113.037H128.96L135.331 113.452C135.389 113.456 135.447 113.44 135.496 113.408C135.545 113.375 135.583 113.327 135.605 113.27C135.626 113.213 135.63 113.151 135.616 113.091C135.601 113.032 135.57 112.979 135.525 112.94L131.222 109.075L136.891 109.413C136.949 109.417 137.006 109.401 137.054 109.368C137.102 109.335 137.139 109.286 137.159 109.23C137.19 109.176 137.2 109.111 137.186 109.05C137.172 108.988 137.136 108.935 137.085 108.901L132.228 104.572L132.127 104.514C132.095 104.5 132.06 104.493 132.026 104.493C131.991 104.493 131.957 104.501 131.925 104.515C131.893 104.53 131.864 104.551 131.84 104.577C131.816 104.603 131.797 104.635 131.785 104.669C131.76 104.726 131.756 104.791 131.773 104.851C131.79 104.911 131.827 104.963 131.878 104.997L136.18 108.843L130.53 108.514V108.514ZM135.737 104.147L136.485 102.214C136.498 102.181 136.505 102.145 136.505 102.108C136.505 102.072 136.497 102.036 136.484 102.003C136.47 101.969 136.45 101.939 136.425 101.914C136.399 101.889 136.37 101.869 136.337 101.857C136.305 101.843 136.271 101.835 136.236 101.836C136.201 101.836 136.167 101.843 136.135 101.858C136.103 101.872 136.074 101.893 136.05 101.92C136.026 101.946 136.008 101.977 135.996 102.011L135.248 103.944L133.078 103.026L134.371 99.692C134.384 99.6585 134.391 99.6225 134.39 99.5861C134.39 99.5497 134.383 99.5138 134.369 99.4804C134.355 99.447 134.335 99.4169 134.31 99.3919C134.285 99.3668 134.255 99.3473 134.223 99.3345C134.191 99.3206 134.158 99.3136 134.124 99.314C134.089 99.3143 134.056 99.322 134.025 99.3364C133.993 99.3509 133.965 99.372 133.942 99.3982C133.919 99.4245 133.902 99.4554 133.89 99.4891L132.487 103.103C132.472 103.14 132.464 103.179 132.464 103.219C132.464 103.259 132.471 103.299 132.486 103.336C132.5 103.373 132.522 103.406 132.549 103.434C132.576 103.462 132.608 103.484 132.644 103.499L138.101 105.799C138.136 105.815 138.174 105.823 138.212 105.823C138.25 105.824 138.288 105.816 138.323 105.801C138.358 105.785 138.39 105.763 138.417 105.734C138.444 105.706 138.465 105.672 138.479 105.635L139.874 102.002C139.887 101.969 139.893 101.933 139.893 101.898C139.893 101.862 139.886 101.827 139.872 101.794C139.858 101.761 139.838 101.732 139.813 101.708C139.788 101.684 139.758 101.665 139.726 101.654C139.662 101.627 139.591 101.628 139.527 101.655C139.464 101.682 139.413 101.733 139.384 101.799L138.092 105.152L135.728 104.185L135.737 104.147ZM140.224 99.663L134.915 97.4212C134.845 97.3993 134.769 97.4057 134.703 97.4389C134.637 97.4722 134.585 97.53 134.558 97.6011C134.53 97.6722 134.528 97.7516 134.554 97.8237C134.579 97.8958 134.629 97.9556 134.694 97.9913L140.234 100.32C140.269 100.336 140.307 100.344 140.345 100.344C140.383 100.345 140.421 100.337 140.456 100.322C140.491 100.306 140.523 100.284 140.55 100.255C140.577 100.227 140.598 100.193 140.612 100.156L142.025 96.5032C142.038 96.4696 142.045 96.4336 142.045 96.3973C142.045 96.3609 142.037 96.325 142.024 96.2916C142.01 96.2582 141.99 96.2281 141.965 96.203C141.939 96.1779 141.91 96.1584 141.877 96.1457C141.813 96.1204 141.743 96.1225 141.681 96.1514C141.618 96.1804 141.57 96.2339 141.545 96.3003L140.243 99.663H140.224ZM142.311 94.2613L137.002 92.0195C136.966 92.004 136.928 91.9962 136.889 91.9966C136.851 91.9971 136.813 92.0056 136.777 92.0219C136.742 92.0381 136.71 92.0617 136.684 92.0912C136.657 92.1207 136.637 92.1555 136.623 92.1934C136.609 92.2295 136.601 92.2683 136.601 92.3076C136.601 92.3469 136.608 92.3858 136.623 92.4219C136.637 92.4581 136.659 92.4907 136.686 92.5179C136.713 92.545 136.745 92.5662 136.78 92.58L142.32 94.9184C142.393 94.947 142.473 94.9448 142.544 94.9123C142.614 94.8798 142.67 94.8196 142.699 94.7445L144.112 91.1015C144.134 91.0333 144.131 90.959 144.104 90.8929C144.076 90.8268 144.027 90.7737 143.964 90.744C143.932 90.73 143.897 90.7229 143.863 90.7231C143.828 90.7233 143.794 90.7309 143.762 90.7453C143.73 90.7597 143.701 90.7807 143.677 90.8071C143.653 90.8334 143.634 90.8645 143.622 90.8986L142.32 94.2613H142.311ZM142.034 87.8547L142.782 85.922C142.795 85.8885 142.802 85.8525 142.802 85.8161C142.802 85.7797 142.795 85.7438 142.781 85.7104C142.767 85.6771 142.747 85.6469 142.722 85.6219C142.697 85.5968 142.667 85.5773 142.634 85.5645C142.603 85.5506 142.569 85.5437 142.535 85.544C142.501 85.5443 142.467 85.552 142.436 85.5665C142.405 85.581 142.377 85.602 142.354 85.6282C142.331 85.6545 142.313 85.6854 142.302 85.7191L141.545 87.6518L139.384 86.7338L140.668 83.4C140.681 83.367 140.688 83.3315 140.689 83.2956C140.689 83.2597 140.683 83.2241 140.67 83.1908C140.657 83.1575 140.638 83.1273 140.614 83.1018C140.59 83.0763 140.561 83.0561 140.529 83.0424C140.497 83.0284 140.463 83.0213 140.428 83.0216C140.393 83.0218 140.359 83.0293 140.327 83.0438C140.295 83.0582 140.266 83.0792 140.242 83.1056C140.218 83.1319 140.2 83.163 140.187 83.197L138.784 86.8111C138.769 86.8484 138.762 86.8885 138.762 86.9289C138.763 86.9693 138.771 87.0093 138.786 87.0463C138.802 87.0833 138.824 87.1166 138.853 87.1443C138.881 87.172 138.914 87.1934 138.95 87.2072L144.398 89.5071C144.433 89.5243 144.471 89.5336 144.509 89.5346C144.548 89.5355 144.586 89.528 144.622 89.5125C144.657 89.4971 144.69 89.474 144.716 89.4448C144.743 89.4155 144.763 89.3808 144.776 89.3428L146.18 85.7191C146.193 85.6856 146.2 85.6495 146.2 85.6132C146.2 85.5768 146.192 85.5409 146.179 85.5075C146.165 85.4741 146.145 85.444 146.12 85.4189C146.094 85.3939 146.065 85.3744 146.032 85.3616C145.968 85.3354 145.897 85.3358 145.834 85.3627C145.77 85.3897 145.719 85.4412 145.691 85.5065L144.398 88.8596L142.034 87.8933V87.8547ZM144.361 77.4088C144.125 77.3046 143.87 77.2553 143.614 77.2642C143.357 77.2731 143.106 77.34 142.877 77.4603C142.648 77.5806 142.447 77.7515 142.287 77.9611C142.127 78.1708 142.012 78.4142 141.951 78.6747L140.908 81.3707C140.893 81.4074 140.885 81.447 140.885 81.4869C140.884 81.5269 140.892 81.5665 140.906 81.6034C140.921 81.6403 140.943 81.6738 140.97 81.7019C140.997 81.73 141.029 81.7521 141.065 81.7669L146.605 84.0957C146.64 84.1129 146.677 84.1223 146.716 84.1232C146.755 84.1241 146.793 84.1166 146.829 84.1012C146.864 84.0857 146.896 84.0626 146.923 84.0334C146.95 84.0042 146.97 83.9694 146.983 83.9314C147.001 83.8952 147.011 83.8552 147.013 83.8144C147.015 83.7736 147.008 83.7329 146.993 83.6951C146.978 83.6574 146.955 83.6235 146.926 83.5959C146.898 83.5683 146.863 83.5476 146.826 83.5353L144.361 82.4916L145.284 80.1725L148.377 79.9406C148.435 79.9393 148.491 79.919 148.538 79.8826C148.584 79.8462 148.619 79.7955 148.636 79.7376C148.651 79.7023 148.658 79.6641 148.658 79.6255C148.658 79.5869 148.651 79.5487 148.636 79.5133C148.621 79.478 148.6 79.4461 148.573 79.4199C148.546 79.3936 148.514 79.3735 148.479 79.3608C148.433 79.3514 148.386 79.3514 148.34 79.3608L145.478 79.5734C145.583 79.1457 145.531 78.6923 145.333 78.3025C145.135 77.9127 144.805 77.6146 144.407 77.4668L144.361 77.4088ZM144.139 77.9789C144.301 78.035 144.45 78.1269 144.575 78.2484C144.701 78.3699 144.799 78.5182 144.865 78.6831C144.931 78.8481 144.962 79.0259 144.956 79.2045C144.95 79.3831 144.908 79.5583 144.832 79.7183L143.853 82.2501L141.499 81.2837L142.477 78.752C142.531 78.5825 142.619 78.4269 142.735 78.2955C142.851 78.1641 142.992 78.0598 143.149 77.9895C143.306 77.9193 143.475 77.8846 143.646 77.8877C143.817 77.8909 143.985 77.9319 144.139 78.0079V77.9789ZM145.229 71.1181C145.198 71.0666 145.153 71.0262 145.1 71.0021C145.068 70.9865 145.034 70.9778 145 70.9766C144.965 70.9755 144.93 70.982 144.898 70.9956C144.866 71.0093 144.837 71.0298 144.813 71.0559C144.789 71.082 144.77 71.113 144.758 71.1471C144.736 71.1937 144.725 71.2449 144.725 71.2969C144.725 71.3488 144.736 71.4001 144.758 71.4467L146.78 74.6838L143.179 75.5438C143.129 75.5526 143.082 75.5752 143.043 75.6091C143.004 75.6431 142.975 75.6872 142.957 75.7371C142.943 75.7705 142.935 75.8067 142.934 75.8435C142.934 75.8803 142.941 75.9167 142.955 75.9505C142.969 75.9843 142.989 76.0146 143.015 76.0394C143.041 76.0642 143.072 76.0831 143.105 76.0946C143.163 76.1102 143.223 76.1102 143.281 76.0946L147.168 75.1283L149.605 76.1526C149.641 76.1672 149.678 76.1744 149.716 76.1738C149.754 76.1732 149.791 76.1648 149.826 76.1491C149.861 76.1334 149.892 76.1107 149.918 76.0823C149.945 76.0539 149.965 76.0203 149.979 75.9835C149.993 75.9467 150 75.9074 150 75.8678C149.999 75.8282 149.991 75.7891 149.976 75.7528C149.961 75.7165 149.939 75.6836 149.912 75.656C149.885 75.6284 149.853 75.6067 149.818 75.5921L147.417 74.6162L145.229 71.1181V71.1181Z" fill="black"></path>
<path d="M94.8543 106.698C94.21 106.649 93.5688 106.562 92.9338 106.437C92.3407 106.312 91.7597 106.131 91.198 105.896C90.5396 105.645 89.987 105.159 89.6375 104.523C89.3113 103.813 89.156 103.03 89.1851 102.243V82.2982C89.1851 77.7887 88.2618 74.4485 86.4151 72.2775C85.4669 71.1857 84.2997 70.3267 82.9972 69.7621C81.6947 69.1974 80.289 68.9411 78.8808 69.0114C77.4057 68.9933 75.9365 69.2083 74.5227 69.6491C73.3173 70.0273 72.1722 70.5907 71.1249 71.3209C70.1392 71.9834 69.2122 72.7369 68.3549 73.5724C67.6624 74.2681 66.8499 75.0895 65.945 76.0172C65.1452 74.0331 63.8386 72.3179 62.1686 71.06C60.3514 69.6732 58.1476 68.9531 55.8993 69.0114C54.4366 68.9989 52.9804 69.2138 51.5781 69.6491C50.3956 69.9989 49.2714 70.5367 48.2449 71.2436C47.3393 71.8967 46.487 72.6272 45.6965 73.4274C44.7732 74.3261 43.9976 75.1185 43.3697 75.7756H43.102V70.1613L42.5664 69.6105L30 70.4802V73.1085C30.745 73.1634 31.4837 73.2896 32.2067 73.4854C32.8357 73.6534 33.4388 73.9136 33.998 74.2585C34.6305 74.7055 35.1577 75.2969 35.5399 75.9882C35.9148 76.6869 36.106 77.4771 36.0939 78.2783V102.639C36.1144 103.454 35.9229 104.259 35.5399 104.968C35.1931 105.571 34.6429 106.016 33.998 106.215C33.4746 106.392 32.9316 106.5 32.3822 106.533L30.5725 106.698V109.326H48.8174V106.698C48.1962 106.65 47.5791 106.557 46.9707 106.417C46.4065 106.282 45.8583 106.081 45.3364 105.818C44.6755 105.545 44.1157 105.057 43.7391 104.427C43.3603 103.738 43.1747 102.951 43.2035 102.156V79.6408L44.3485 77.9884C44.8692 77.2521 45.4915 76.6007 46.1951 76.0558C47.1116 75.337 48.1263 74.7669 49.2052 74.3648C50.3343 73.9454 51.5249 73.7361 52.723 73.7463C53.5912 73.736 54.4502 73.9334 55.2343 74.3237C56.0185 74.7139 56.707 75.2865 57.2473 75.9978C58.4784 77.4924 59.094 79.6215 59.094 82.3852V102.678C59.1305 103.489 58.9515 104.295 58.5769 105.007C58.1994 105.604 57.6238 106.035 56.9611 106.215C56.4739 106.386 55.9684 106.493 55.4561 106.533L53.7664 106.698V109.326H71.6604V106.698C71.0394 106.66 70.4221 106.573 69.8138 106.437C69.2757 106.296 68.748 106.116 68.2349 105.896C67.5753 105.647 67.022 105.161 66.6745 104.523C66.3482 103.813 66.1929 103.03 66.222 102.243V79.6408C66.5629 79.0395 66.9359 78.4588 67.3393 77.9015C67.8727 77.1909 68.4936 76.5573 69.1859 76.0172C70.1009 75.3008 71.1162 74.7369 72.1959 74.3454C73.325 73.941 74.5112 73.7384 75.7046 73.7463C76.5702 73.7353 77.4267 73.9326 78.208 74.323C78.9892 74.7134 79.6743 75.2864 80.2104 75.9978C81.4415 77.4924 82.0571 79.6215 82.0571 82.3852V102.678C82.0916 103.488 81.9162 104.293 81.5492 105.007C81.1852 105.613 80.6195 106.057 79.9611 106.253C79.45 106.43 78.9194 106.537 78.3822 106.572L76.5725 106.698V109.326H94.8543V106.698ZM98.1506 125.521C99.4788 126.559 101.112 127.079 102.767 126.99C103.778 126.991 104.78 126.795 105.722 126.41C106.901 125.869 107.977 125.11 108.898 124.169C110.315 122.692 111.556 121.04 112.591 119.25C114.207 116.457 115.639 113.551 116.876 110.553C118.107 107.719 119.892 103.29 122.231 97.2664C124.57 91.2431 127.254 84.569 130.282 77.2444C130.853 75.8642 131.821 74.7053 133.052 73.9299C133.97 73.2891 134.989 72.8245 136.062 72.5577V70.084H122.157V72.6351C123.307 72.8018 124.421 73.171 125.453 73.727C126.607 74.3261 127.18 74.9639 127.18 75.6596C127.148 76.4473 126.982 77.2227 126.691 77.9498C126.358 78.8388 126.1 79.5345 125.924 80.037C124.398 84.1729 123.019 87.7579 121.788 90.7921C120.557 93.8263 119.369 96.7639 118.224 99.6049C117.134 96.6287 115.595 92.67 113.607 87.7289C111.619 82.7878 110.157 79.0031 109.221 76.3747C109.12 75.9978 108.926 75.4084 108.649 74.616C108.649 74.0942 109.184 73.6497 110.246 73.3695C111.148 73.0913 112.077 72.9227 113.016 72.867V70.084H95.8515V72.7124C97.049 72.9278 98.1999 73.3664 99.2494 74.0072C100.35 74.6322 101.211 75.6357 101.687 76.8482C103.841 82.1565 105.894 87.2747 107.846 92.2029C109.797 97.1311 111.979 102.768 114.392 109.113C113.367 111.886 112.083 114.547 110.56 117.057C108.8 120.071 107.285 121.936 106.017 122.652C105.759 122.207 105.417 121.685 104.983 120.951C104.632 120.37 104.224 119.829 103.764 119.337C103.313 118.84 102.786 118.425 102.204 118.11C101.551 117.782 100.833 117.62 100.108 117.636C99.6119 117.628 99.1203 117.737 98.6697 117.955C98.219 118.172 97.8208 118.493 97.5043 118.893C96.7821 119.808 96.4161 120.974 96.4794 122.159C96.496 122.82 96.657 123.468 96.9498 124.055C97.2427 124.641 97.6597 125.149 98.1691 125.541L98.1506 125.521Z" fill="black"></path>
</g>
<defs>
<clipPath id="SvgjsClipPath1022">
<rect width="180" height="180" fill="white"></rect>
</clipPath>
</defs>
</svg><style>@media (prefers-color-scheme: light) { :root { filter: none; } }
@media (prefers-color-scheme: dark) { :root { filter: none; } }
</style></svg>